<svg xmlns="http://www.w3.org/2000/svg" width="900" height="420" font-family="Helvetica,Arial,sans-serif">
<rect width="900" height="420" fill="white"/>
<text x="70" y="24" font-size="16" font-weight="bold">objects: accuracy</text>
<line x1="70" y1="370.0" x2="880" y2="370.0" stroke="#e5e5e5"/>
<text x="62" y="374.0" font-size="11" text-anchor="end" fill="#555">-0.08</text>
<line x1="70" y1="287.5" x2="880" y2="287.5" stroke="#e5e5e5"/>
<text x="62" y="291.5" font-size="11" text-anchor="end" fill="#555">0.21</text>
<line x1="70" y1="205.0" x2="880" y2="205.0" stroke="#e5e5e5"/>
<text x="62" y="209.0" font-size="11" text-anchor="end" fill="#555">0.5</text>
<line x1="70" y1="122.5" x2="880" y2="122.5" stroke="#e5e5e5"/>
<text x="62" y="126.5" font-size="11" text-anchor="end" fill="#555">0.79</text>
<line x1="70" y1="40.0" x2="880" y2="40.0" stroke="#e5e5e5"/>
<text x="62" y="44.0" font-size="11" text-anchor="end" fill="#555">1.08</text>
<line x1="70.0" y1="40" x2="70.0" y2="370" stroke="#f0f0f0"/>
<text x="70.0" y="388" font-size="11" text-anchor="middle" fill="#555">10</text>
<line x1="272.5" y1="40" x2="272.5" y2="370" stroke="#f0f0f0"/>
<text x="272.5" y="388" font-size="11" text-anchor="middle" fill="#555">232</text>
<line x1="475.0" y1="40" x2="475.0" y2="370" stroke="#f0f0f0"/>
<text x="475.0" y="388" font-size="11" text-anchor="middle" fill="#555">455</text>
<line x1="677.5" y1="40" x2="677.5" y2="370" stroke="#f0f0f0"/>
<text x="677.5" y="388" font-size="11" text-anchor="middle" fill="#555">678</text>
<line x1="880.0" y1="40" x2="880.0" y2="370" stroke="#f0f0f0"/>
<text x="880.0" y="388" font-size="11" text-anchor="middle" fill="#555">900</text>
<text x="475" y="412" font-size="12" text-anchor="middle" fill="#333">training step</text>
<polyline fill="none" stroke="#1f77b4" stroke-width="2" points="70.0,133.3 79.1,96.0 88.2,74.7 97.3,72.1 106.4,81.1 115.5,70.3 124.6,76.1 133.7,70.0 142.8,71.1 151.9,71.2 161.0,78.6 170.1,71.1 179.2,74.5 188.3,73.1 197.4,74.8 206.5,71.9 215.6,70.0 224.7,69.9 233.8,72.7 242.9,73.7 252.0,66.1 261.1,70.4 270.2,70.3 279.3,70.6 288.4,70.4 297.5,72.0 306.6,71.7 315.7,71.4 324.8,71.7 333.9,64.6 343.0,71.3 352.1,66.7 361.2,66.1 370.3,71.7 379.4,65.2 388.5,65.9 397.6,67.6 406.7,68.8 415.8,68.5 424.9,66.4 434.0,65.4 443.1,66.4 452.2,65.4 461.3,70.8 470.4,68.6 479.6,75.8 488.7,68.1 497.8,68.1 506.9,67.1 516.0,72.2 525.1,67.8 534.2,67.9 543.3,68.3 552.4,66.4 561.5,67.2 570.6,67.4 579.7,65.9 588.8,69.0 597.9,65.6 607.0,65.5 616.1,66.7 625.2,66.7 634.3,68.4 643.4,67.2 652.5,66.5 661.6,65.4 670.7,69.6 679.8,65.7 688.9,64.9 698.0,66.9 707.1,66.2 716.2,68.2 725.3,65.6 734.4,69.0 743.5,64.7 752.6,66.8 761.7,67.0 770.8,68.9 779.9,66.3 789.0,65.4 798.1,64.4 807.2,64.8 816.3,63.3 825.4,67.6 834.5,65.7 843.6,64.6 852.7,64.6 861.8,64.3 870.9,65.6 880.0,66.1"/>
<circle cx="70.0" cy="133.3" r="2.2" fill="#1f77b4"/>
<circle cx="79.1" cy="96.0" r="2.2" fill="#1f77b4"/>
<circle cx="88.2" cy="74.7" r="2.2" fill="#1f77b4"/>
<circle cx="97.3" cy="72.1" r="2.2" fill="#1f77b4"/>
<circle cx="106.4" cy="81.1" r="2.2" fill="#1f77b4"/>
<circle cx="115.5" cy="70.3" r="2.2" fill="#1f77b4"/>
<circle cx="124.6" cy="76.1" r="2.2" fill="#1f77b4"/>
<circle cx="133.7" cy="70.0" r="2.2" fill="#1f77b4"/>
<circle cx="142.8" cy="71.1" r="2.2" fill="#1f77b4"/>
<circle cx="151.9" cy="71.2" r="2.2" fill="#1f77b4"/>
<circle cx="161.0" cy="78.6" r="2.2" fill="#1f77b4"/>
<circle cx="170.1" cy="71.1" r="2.2" fill="#1f77b4"/>
<circle cx="179.2" cy="74.5" r="2.2" fill="#1f77b4"/>
<circle cx="188.3" cy="73.1" r="2.2" fill="#1f77b4"/>
<circle cx="197.4" cy="74.8" r="2.2" fill="#1f77b4"/>
<circle cx="206.5" cy="71.9" r="2.2" fill="#1f77b4"/>
<circle cx="215.6" cy="70.0" r="2.2" fill="#1f77b4"/>
<circle cx="224.7" cy="69.9" r="2.2" fill="#1f77b4"/>
<circle cx="233.8" cy="72.7" r="2.2" fill="#1f77b4"/>
<circle cx="242.9" cy="73.7" r="2.2" fill="#1f77b4"/>
<circle cx="252.0" cy="66.1" r="2.2" fill="#1f77b4"/>
<circle cx="261.1" cy="70.4" r="2.2" fill="#1f77b4"/>
<circle cx="270.2" cy="70.3" r="2.2" fill="#1f77b4"/>
<circle cx="279.3" cy="70.6" r="2.2" fill="#1f77b4"/>
<circle cx="288.4" cy="70.4" r="2.2" fill="#1f77b4"/>
<circle cx="297.5" cy="72.0" r="2.2" fill="#1f77b4"/>
<circle cx="306.6" cy="71.7" r="2.2" fill="#1f77b4"/>
<circle cx="315.7" cy="71.4" r="2.2" fill="#1f77b4"/>
<circle cx="324.8" cy="71.7" r="2.2" fill="#1f77b4"/>
<circle cx="333.9" cy="64.6" r="2.2" fill="#1f77b4"/>
<circle cx="343.0" cy="71.3" r="2.2" fill="#1f77b4"/>
<circle cx="352.1" cy="66.7" r="2.2" fill="#1f77b4"/>
<circle cx="361.2" cy="66.1" r="2.2" fill="#1f77b4"/>
<circle cx="370.3" cy="71.7" r="2.2" fill="#1f77b4"/>
<circle cx="379.4" cy="65.2" r="2.2" fill="#1f77b4"/>
<circle cx="388.5" cy="65.9" r="2.2" fill="#1f77b4"/>
<circle cx="397.6" cy="67.6" r="2.2" fill="#1f77b4"/>
<circle cx="406.7" cy="68.8" r="2.2" fill="#1f77b4"/>
<circle cx="415.8" cy="68.5" r="2.2" fill="#1f77b4"/>
<circle cx="424.9" cy="66.4" r="2.2" fill="#1f77b4"/>
<circle cx="434.0" cy="65.4" r="2.2" fill="#1f77b4"/>
<circle cx="443.1" cy="66.4" r="2.2" fill="#1f77b4"/>
<circle cx="452.2" cy="65.4" r="2.2" fill="#1f77b4"/>
<circle cx="461.3" cy="70.8" r="2.2" fill="#1f77b4"/>
<circle cx="470.4" cy="68.6" r="2.2" fill="#1f77b4"/>
<circle cx="479.6" cy="75.8" r="2.2" fill="#1f77b4"/>
<circle cx="488.7" cy="68.1" r="2.2" fill="#1f77b4"/>
<circle cx="497.8" cy="68.1" r="2.2" fill="#1f77b4"/>
<circle cx="506.9" cy="67.1" r="2.2" fill="#1f77b4"/>
<circle cx="516.0" cy="72.2" r="2.2" fill="#1f77b4"/>
<circle cx="525.1" cy="67.8" r="2.2" fill="#1f77b4"/>
<circle cx="534.2" cy="67.9" r="2.2" fill="#1f77b4"/>
<circle cx="543.3" cy="68.3" r="2.2" fill="#1f77b4"/>
<circle cx="552.4" cy="66.4" r="2.2" fill="#1f77b4"/>
<circle cx="561.5" cy="67.2" r="2.2" fill="#1f77b4"/>
<circle cx="570.6" cy="67.4" r="2.2" fill="#1f77b4"/>
<circle cx="579.7" cy="65.9" r="2.2" fill="#1f77b4"/>
<circle cx="588.8" cy="69.0" r="2.2" fill="#1f77b4"/>
<circle cx="597.9" cy="65.6" r="2.2" fill="#1f77b4"/>
<circle cx="607.0" cy="65.5" r="2.2" fill="#1f77b4"/>
<circle cx="616.1" cy="66.7" r="2.2" fill="#1f77b4"/>
<circle cx="625.2" cy="66.7" r="2.2" fill="#1f77b4"/>
<circle cx="634.3" cy="68.4" r="2.2" fill="#1f77b4"/>
<circle cx="643.4" cy="67.2" r="2.2" fill="#1f77b4"/>
<circle cx="652.5" cy="66.5" r="2.2" fill="#1f77b4"/>
<circle cx="661.6" cy="65.4" r="2.2" fill="#1f77b4"/>
<circle cx="670.7" cy="69.6" r="2.2" fill="#1f77b4"/>
<circle cx="679.8" cy="65.7" r="2.2" fill="#1f77b4"/>
<circle cx="688.9" cy="64.9" r="2.2" fill="#1f77b4"/>
<circle cx="698.0" cy="66.9" r="2.2" fill="#1f77b4"/>
<circle cx="707.1" cy="66.2" r="2.2" fill="#1f77b4"/>
<circle cx="716.2" cy="68.2" r="2.2" fill="#1f77b4"/>
<circle cx="725.3" cy="65.6" r="2.2" fill="#1f77b4"/>
<circle cx="734.4" cy="69.0" r="2.2" fill="#1f77b4"/>
<circle cx="743.5" cy="64.7" r="2.2" fill="#1f77b4"/>
<circle cx="752.6" cy="66.8" r="2.2" fill="#1f77b4"/>
<circle cx="761.7" cy="67.0" r="2.2" fill="#1f77b4"/>
<circle cx="770.8" cy="68.9" r="2.2" fill="#1f77b4"/>
<circle cx="779.9" cy="66.3" r="2.2" fill="#1f77b4"/>
<circle cx="789.0" cy="65.4" r="2.2" fill="#1f77b4"/>
<circle cx="798.1" cy="64.4" r="2.2" fill="#1f77b4"/>
<circle cx="807.2" cy="64.8" r="2.2" fill="#1f77b4"/>
<circle cx="816.3" cy="63.3" r="2.2" fill="#1f77b4"/>
<circle cx="825.4" cy="67.6" r="2.2" fill="#1f77b4"/>
<circle cx="834.5" cy="65.7" r="2.2" fill="#1f77b4"/>
<circle cx="843.6" cy="64.6" r="2.2" fill="#1f77b4"/>
<circle cx="852.7" cy="64.6" r="2.2" fill="#1f77b4"/>
<circle cx="861.8" cy="64.3" r="2.2" fill="#1f77b4"/>
<circle cx="870.9" cy="65.6" r="2.2" fill="#1f77b4"/>
<circle cx="880.0" cy="66.1" r="2.2" fill="#1f77b4"/>
<rect x="78" y="386" width="12" height="12" fill="#1f77b4"/>
<text x="96" y="396" font-size="12" fill="#333">token accuracy</text>
<polyline fill="none" stroke="#d62728" stroke-width="2" points="197.4,73.0 333.9,68.7 470.4,68.4 607.0,67.2 743.5,66.8 880.0,66.7"/>
<circle cx="197.4" cy="73.0" r="2.2" fill="#d62728"/>
<circle cx="333.9" cy="68.7" r="2.2" fill="#d62728"/>
<circle cx="470.4" cy="68.4" r="2.2" fill="#d62728"/>
<circle cx="607.0" cy="67.2" r="2.2" fill="#d62728"/>
<circle cx="743.5" cy="66.8" r="2.2" fill="#d62728"/>
<circle cx="880.0" cy="66.7" r="2.2" fill="#d62728"/>
<rect x="298" y="386" width="12" height="12" fill="#d62728"/>
<text x="316" y="396" font-size="12" fill="#333">eval token accuracy</text>
<polyline fill="none" stroke="#2ca02c" stroke-width="2" points="197.4,145.7 333.9,62.8 470.4,74.6 607.0,62.8 743.5,62.8 880.0,62.8 880.0,62.8"/>
<circle cx="197.4" cy="145.7" r="2.2" fill="#2ca02c"/>
<circle cx="333.9" cy="62.8" r="2.2" fill="#2ca02c"/>
<circle cx="470.4" cy="74.6" r="2.2" fill="#2ca02c"/>
<circle cx="607.0" cy="62.8" r="2.2" fill="#2ca02c"/>
<circle cx="743.5" cy="62.8" r="2.2" fill="#2ca02c"/>
<circle cx="880.0" cy="62.8" r="2.2" fill="#2ca02c"/>
<circle cx="880.0" cy="62.8" r="2.2" fill="#2ca02c"/>
<rect x="518" y="386" width="12" height="12" fill="#2ca02c"/>
<text x="536" y="396" font-size="12" fill="#333">dev exact match</text>
<polyline fill="none" stroke="#9467bd" stroke-width="2" points="197.4,62.8 333.9,62.8 470.4,62.8 607.0,62.8 743.5,62.8 880.0,62.8 880.0,62.8"/>
<circle cx="197.4" cy="62.8" r="2.2" fill="#9467bd"/>
<circle cx="333.9" cy="62.8" r="2.2" fill="#9467bd"/>
<circle cx="470.4" cy="62.8" r="2.2" fill="#9467bd"/>
<circle cx="607.0" cy="62.8" r="2.2" fill="#9467bd"/>
<circle cx="743.5" cy="62.8" r="2.2" fill="#9467bd"/>
<circle cx="880.0" cy="62.8" r="2.2" fill="#9467bd"/>
<circle cx="880.0" cy="62.8" r="2.2" fill="#9467bd"/>
<rect x="738" y="386" width="12" height="12" fill="#9467bd"/>
<text x="756" y="396" font-size="12" fill="#333">dev parseable</text>
</svg>